<?xml version="1.0" encoding="UTF-8"?>
<svg width="230px" height="37px" viewBox="0 0 230 37" version="1.1" xmlns="http://www.w3.org/2000/svg" xmlns:xlink="http://www.w3.org/1999/xlink">
    <title>logo merca@2x</title>
    <g id="Onboarding-V02" stroke="none" stroke-width="1" fill="none" fill-rule="evenodd">
        <g id="992px" transform="translate(-32.000000, -22.000000)">
            <g id="header">
                <g id="logo-merca" transform="translate(32.000000, 22.000000)">
                    <g id="Group-3">
                        <g id="Group" transform="translate(3.922009, 5.842105)">
                            <path d="M23.3018361,11.9458338 L15.3390048,11.9458338 L15.3390048,1.93460654 C15.3390048,1.38379919 14.8977008,0.933230686 14.3576123,0.933230686 C13.8180201,0.933230686 13.3757233,1.38379919 13.3757233,1.93460654 L13.3757233,11.9458338 L5.41587041,11.9458338 C4.72735679,11.9458338 4.16344079,12.5204352 4.16344079,13.2226133 L4.16344079,22.3053657 C4.16344079,23.0075438 4.72735679,23.5821452 5.41587041,23.5821452 L23.3018361,23.5821452 C23.9908462,23.5821452 24.5537694,23.0075438 24.5537694,22.3053657 L24.5537694,13.2226133 C24.5537694,12.5204352 23.9908462,11.9458338 23.3018361,11.9458338" id="Combined-Shape" fill="#FBBB17"/>
                            <path d="M26.6176721,3.93518134 C26.9383497,4.19944736 26.8326154,4.32398653 26.6305786,4.61052785 C25.9668852,5.5521654 24.809269,6.93272756 24.7228945,7.75083847 C24.6251027,8.67475704 24.9115284,10.0335502 23.8844666,10.9792378 C23.457062,10.9544312 18.4230196,10.9792378 18.4230196,10.9792378 C19.4242684,9.67765166 20.6449281,7.34988312 22.5794181,6.82945119 C23.7752575,6.50747189 24.610707,5.0945093 25.375667,3.95998792 C25.7713017,3.37323635 26.0716267,3.48410658 26.6176721,3.93518134" id="Fill-6" fill="#A71E59"/>
                            <path d="M20.9247515,6.31716998 C20.1111439,6.83304561 19.617221,7.39701563 19.1570536,7.97516084 C18.1146033,9.28585957 16.9897497,10.9792884 16.9897497,10.9792884 L16.4695174,10.9792884 C17.176398,8.42370432 16.0287098,6.67053719 17.139664,5.98253427 C17.8847678,5.52082811 18.2302656,6.24224398 19.2846297,5.70459931 C20.606556,5.03026532 20.9247515,6.31716998 20.9247515,6.31716998" id="Fill-8" fill="#BBD43A"/>
                            <path d="M27.6686606,8.624992 C27.8453807,8.71915576 27.9253019,8.94545253 27.8865824,9.14491769 C27.7361717,9.91797174 28.8476223,10.5467426 28.036993,11.1324817 C27.2313279,11.7151832 27.4423,12.093357 26.9697225,12.093357 C26.3829718,12.093357 26.679822,11.3694098 25.3628597,10.9790859 C25.6458105,10.4657415 25.8041637,10.2581763 25.8607539,8.72826838 C26.4470081,8.40831411 27.1911191,8.37135737 27.6686606,8.624992" id="Fill-10" fill="#BBD43A"/>
                            <path d="M6.2541494,3.94753401 C7.54728422,3.11980422 7.32539122,5.02839217 7.93894771,4.65426843 C8.26607855,4.45429701 8.57881365,4.61629917 8.61753323,4.86892129 C8.71234657,5.48959207 7.93547287,6.58665045 7.96476076,7.26807203 C7.96674638,7.30401626 7.93894771,7.33236664 7.90370296,7.32781033 C7.77265206,7.31211637 7.6758531,7.31363514 7.2017864,7.43513676 C6.7788494,7.54347571 6.27201998,7.89076784 6.27201998,7.89076784 C5.64406775,7.67206492 5.06525962,7.3176852 4.42340805,6.95976167 C3.94983776,6.69549565 3.8331826,6.49147418 3.82821855,6.10064397 C3.8227581,5.62476262 4.19158695,5.52958635 4.04812593,5.21823845 C3.84956396,4.7869077 3.65050559,4.27963843 3.87736264,3.86248287 C4.00295308,3.65694263 4.26257286,3.43064586 4.51772499,3.440771 C5.39884372,3.42001447 5.52493057,4.41379647 6.2541494,3.94753401" id="Fill-12" fill="#BBD43A"/>
                            <path d="M2.84841452,5.70611808 C2.9069903,5.82660719 2.93478897,5.88685174 2.86380307,6.01999727 C2.62900354,6.45790936 2.81863022,6.92872813 3.13086892,7.36512145 C3.64663363,8.08704358 5.13237356,8.50166786 5.80946987,8.7223958 L5.62282162,9.31826 C4.09290165,8.91376085 3.13583297,9.04690638 1.98466995,9.33395396 C1.98466995,9.33395396 1.34083277,9.61644522 0.939241188,9.24637154 C0.535167582,8.87477908 0.725787072,8.41003539 0.939737593,8.22221413 C0.939737593,8.22221413 0.0352878259,7.64913149 0.438865027,6.80570774 C0.754578557,6.14554894 1.36664583,6.24123147 1.36664583,6.24123147 C1.36664583,6.24123147 1.22368121,5.51424677 1.87397166,5.1791048 C2.26712435,4.9766021 2.60964375,5.22770545 2.60964375,5.22770545 C2.71339238,5.46058356 2.78785312,5.58107266 2.84841452,5.70611808" id="Fill-14" fill="#BBD43A"/>
                            <path d="M5.38737677,10.3173071 L5.38737677,10.9794909 C3.94730609,10.9308903 3.30148329,11.4447409 2.93364724,12.5812873 C2.53304847,14.09702 0.106621213,13.4591365 0.923703714,11.4158842 C1.54867751,9.97609002 3.81426957,9.82016294 5.38737677,10.3173071" id="Fill-16" fill="#BBD43A"/>
                            <path d="M12.3314859,7.87350448 C11.7829585,7.84566036 11.2200353,7.98386845 10.8253934,8.27901614 C9.66033105,7.53532497 8.79509727,7.72365248 8.88643578,7.58595065 C9.38135149,6.83567814 10.9331133,6.19830089 12.3394284,6.86453478 C12.3394284,6.86453478 12.3563062,7.64315766 12.3314859,7.87350448" id="Fill-18" fill="#F05C2C"/>
                            <path d="M10.0484701,8.80891508 C9.97252011,8.88637236 9.9015342,8.96079211 9.83551235,9.03268056 C9.13806343,9.80117831 9.07253799,10.9053243 9.07253799,10.9053243 L6.36663476,10.9053243 C6.3006129,10.5271505 6.3001165,10.096326 6.36564195,9.80117831 C6.59200259,8.78107096 7.25917081,8.27835801 8.35076523,8.27886426 C8.95141518,8.27937052 9.56695729,8.43985391 10.0415204,8.72335769 C10.0703119,8.74057042 10.0722975,8.7841085 10.0484701,8.80891508" id="Fill-20" fill="#F05C2C"/>
                            <path d="M12.3450378,10.9792884 L10.06505,10.9792884 C10.1290862,9.73946561 10.8885858,9.00640584 11.4703723,8.82465967 C11.6748911,8.76087131 12.0243602,8.7036643 12.3450378,8.70619559 L12.3450378,10.9792884 Z" id="Fill-22" fill="#F05C2C"/>
                        </g>
                        <ellipse id="Oval" stroke="#229E6B" stroke-width="1.46911765" cx="18.6295434" cy="18.5" rx="17.8949846" ry="17.7654412"/>
                    </g>
                    <g id="Group-2" transform="translate(43.600000, 7.617647)" fill="#229E6B">
                        <path d="M11.755385,9.51907824 L8.94593319,3.126959 C8.40651145,1.82563615 7.15806048,0.987193966 5.8239315,0.987193966 C4.20654054,0.987193966 3.07130694,2.1147695 2.7591942,3.96584669 L0.602381494,16.3161624 C0.573967869,16.5763378 0.545554244,16.8369588 0.545554244,17.0971343 C0.545554244,19.1219588 1.85083246,20.5680711 3.69553242,20.5680711 C5.31336052,20.5680711 6.50498424,19.44005 6.81753411,17.5885273 L7.3281051,14.5225555 L8.5769932,17.9645344 C9.22963231,19.7576958 10.2227978,20.5680711 11.755385,20.5680711 C13.231145,20.5680711 14.3379649,19.6712676 14.9621904,17.936022 L16.1826649,14.5225555 L16.8921313,18.1382817 C17.1474168,19.584394 18.3963049,20.5680711 19.9852822,20.5680711 C21.6883512,20.5680711 23.0504566,19.2083869 23.0504566,17.4731413 C23.0504566,17.1835624 23.022043,16.8075554 22.9368021,16.4025905 L20.7799894,3.96584669 C20.6099448,2.9246993 20.3542222,2.37539048 19.8152376,1.85459403 C19.2758158,1.33379759 18.4247185,0.987193966 17.6584249,0.987193966 C16.4947776,0.987193966 15.3879577,1.68084672 14.9058003,2.69348172 L11.755385,9.51907824 Z" id="Fill-28"/>
                        <path d="M30.5252071,14.4648624 L30.5252071,13.0187502 L32.7672607,13.0187502 C33.7604262,13.0187502 34.214607,12.9029186 34.6967644,12.5269116 C35.2077725,12.0934343 35.5198852,11.4282939 35.5198852,10.7052378 C35.5198852,9.34555367 34.5267198,8.42023783 32.9941325,8.42023783 L30.5252071,8.42023783 L30.5252071,7.08951159 L33.6472088,7.08951159 C34.8104189,7.08951159 35.463058,6.88680639 36.0308934,6.39541333 C36.6835325,5.845659 37.0524725,4.97825894 37.0524725,4.05249759 C37.0524725,2.72221685 36.200938,1.6231537 34.8956598,1.27610457 C34.4698925,1.16027302 34.2998479,1.13131514 32.5115381,1.13131514 L28.765748,1.13131514 C26.9210481,1.13131514 26.7789799,1.16027302 26.0695136,1.44940638 C25.4168745,1.73898524 24.8210626,2.31725195 24.56534,3.04030809 C24.3100545,3.6479782 24.2816409,3.85023789 24.2816409,5.47009749 L24.2816409,15.9403781 C24.2816409,17.2706589 24.3100545,17.4439607 24.3952954,17.8489256 C24.5937536,18.9769466 25.2179791,19.7579185 26.1831681,20.1628834 C26.7221527,20.3651431 27.1195063,20.4230589 28.5672898,20.4230589 L33.4198998,20.4230589 C34.8388325,20.4230589 35.3782543,20.278715 36.0024797,19.7579185 C36.6267052,19.2081642 37.0240588,18.3407641 37.0240588,17.4439607 C37.0240588,16.5761151 36.6551188,15.7666308 36.0024797,15.1879186 C35.3498406,14.6386098 34.7535916,14.4648624 33.3914862,14.4648624 L30.5252071,14.4648624 Z" id="Fill-32"/>
                        <path d="M45.3061497,7.03181857 C45.5898488,7.06033095 45.8167207,7.06033095 45.9587888,7.06033095 C46.8955641,7.03181857 47.4061351,7.40782558 47.4061351,8.10192384 C47.4061351,8.79602209 46.9239778,9.14307122 45.9872024,9.11411334 L45.5614352,9.11411334 L45.3061497,9.11411334 L45.3061497,7.03181857 Z M51.5213023,12.990015 C52.9686486,11.3411975 53.536484,9.92404314 53.536484,8.07296595 C53.536484,4.9490783 51.4928887,2.25955893 48.5697824,1.42067125 C47.7466615,1.21796604 47.0656088,1.13153789 45.5334587,1.13153789 L42.9224651,1.13153789 C41.4182915,1.13153789 40.794066,1.33379759 40.0845997,1.97042558 C39.3467197,2.63556595 39.0625834,3.41653786 39.0625834,4.80473437 L39.0625834,16.6921694 C39.0625834,17.9066186 39.2898924,18.7455063 39.8004634,19.4106466 C40.3682988,20.1337028 41.304637,20.5680711 42.2414124,20.5680711 C43.9724578,20.5680711 45.3061497,19.1794291 45.3061497,17.3573098 L45.3061497,14.7252607 L47.8887296,19.0925554 C48.456565,20.0472746 49.3644896,20.5680711 50.4713096,20.5680711 C52.2307687,20.5680711 53.5933113,19.2083869 53.5933113,17.4441834 C53.5933113,16.779043 53.3944159,16.0265835 52.9970623,15.3908465 L51.5213023,12.990015 Z" id="Fill-36"/>
                        <path d="M73.852969,14.8120452 C73.852969,13.1636732 72.377209,11.6881576 70.7314044,11.6881576 C69.9366972,11.6881576 69.0851627,12.0641646 68.5745917,12.6139189 L67.9219526,13.3080172 C67.1840726,14.1175015 66.1620564,14.5803821 65.1404773,14.5803821 C63.0973191,14.5803821 61.4510774,12.9030523 61.4510774,10.8207575 C61.4510774,8.70950484 63.0973191,7.06068735 65.1688909,7.06068735 C66.19047,7.06068735 67.1840726,7.46565225 67.8651254,8.21722078 L68.77305,9.22985578 C69.1988172,9.69273645 69.9935245,10.0108277 70.7314044,10.0108277 C72.4624499,10.0108277 73.852969,8.56471541 73.852969,6.82902427 C73.852969,5.5566593 73.0866754,4.25533645 71.5540882,3.01148386 C69.7378018,1.47849792 67.5241619,0.668568118 65.2257182,0.668568118 C59.6916183,0.668568118 55.1790975,5.20961017 55.1790975,10.8207575 C55.1790975,16.4025014 59.6632047,20.9145856 65.1973046,20.9145856 C67.6094028,20.9145856 69.9651108,19.9892698 71.8098108,18.3694102 C73.1435026,17.1834733 73.852969,15.9690241 73.852969,14.8120452" id="Fill-40"/>
                        <path d="M83.8666736,13.3080617 L84.8318625,10.9945494 L85.7966144,13.3080617 L83.8666736,13.3080617 Z M81.9651464,17.906574 L87.7545317,17.906574 C88.6344798,19.8734828 89.4855772,20.5680265 90.9333607,20.5680265 C92.6644061,20.5680265 94.0833388,19.1504266 94.0833388,17.415181 C94.0833388,16.9233424 93.9696843,16.3740336 93.7143989,15.882195 L87.7545317,2.92465475 C87.1871335,1.71020556 86.1087271,0.987149416 84.8318625,0.987149416 C83.5829744,0.987149416 82.5045681,1.71020556 81.9651464,2.89569687 L76.03413,15.7088932 C75.7784074,16.2582021 75.6363392,16.8369143 75.6363392,17.3862231 C75.6363392,19.1793845 76.9988818,20.5680265 78.7299273,20.5680265 C80.2341009,20.5680265 81.1708763,19.7870546 81.9651464,17.906574 L81.9651464,17.906574 Z" id="Fill-44"/>
                        <path d="M101.823298,7.06050915 L102.333869,7.06050915 C103.497953,7.06050915 104.150592,7.1763407 104.746404,7.46547405 C105.966879,8.07269865 106.761149,9.37446701 106.761149,10.7916214 C106.761149,11.9775582 106.165337,13.163495 105.228999,13.8575933 C104.491119,14.3783897 103.98011,14.4648179 101.823298,14.4942213 L101.823298,7.06050915 Z M99.1554769,1.13127059 C97.3391906,1.13127059 96.1759805,1.85432673 95.7217996,3.24296875 C95.5797315,3.67644603 95.5797315,3.85019334 95.5797315,5.47005294 L95.5797315,16.0846775 C95.5797315,17.4149582 95.5797315,17.733495 95.693386,18.1674178 C95.8918442,18.9189863 96.2891978,19.4397827 96.9986642,19.9022179 C97.5664996,20.3071828 98.1623114,20.4230143 99.6380714,20.4230143 L102.277479,20.4230143 C103.582757,20.4230143 104.71799,20.3365862 105.484284,20.1917968 C107.130089,19.8443021 108.719503,19.0058599 109.939978,17.848881 C111.869481,16.0267617 112.976301,13.4236705 112.976301,10.763109 C112.976301,8.01522838 111.841068,5.38273378 109.854737,3.59001787 C108.010037,1.9122425 105.82481,1.13127059 102.986945,1.13127059 L99.1554769,1.13127059 Z" id="Fill-48"/>
                        <path d="M120.970016,10.7629308 C120.970016,8.70959394 122.644671,7.06033095 124.687829,7.06033095 C126.730987,7.06033095 128.405643,8.73810632 128.405643,10.7914432 C128.405643,12.8741835 126.730987,14.6098746 124.687829,14.6098746 C122.644671,14.6098746 120.970016,12.8741835 120.970016,10.7629308 M114.698036,10.6760572 C114.698036,16.3740781 119.125316,20.9146747 124.687829,20.9146747 C130.165102,20.9146747 134.648772,16.3446748 134.648772,10.7629308 C134.648772,5.18074139 130.193515,0.668657219 124.659416,0.668657219 C119.125316,0.668657219 114.698036,5.12282561 114.698036,10.6760572" id="Fill-52"/>
                        <path d="M146.972154,8.4779754 L142.00589,2.25960348 C141.296424,1.36280002 140.586957,0.987238517 139.678595,0.987238517 C137.720241,0.987238517 136.414963,2.34603164 136.414963,4.39981402 L136.414963,16.6053403 C136.414963,18.0224947 136.557031,18.6012069 137.067602,19.324263 C137.663851,20.1052349 138.600189,20.5681156 139.565378,20.5681156 C140.501716,20.5681156 141.381227,20.1337473 141.977476,19.4106912 C142.516898,18.7165929 142.686943,18.1383262 142.686943,16.8655157 L142.686943,12.8163123 L147.624794,19.2663473 C148.27787,20.1337473 149.100553,20.5681156 150.094156,20.5681156 C151.058908,20.5681156 151.966833,20.1337473 152.534668,19.3821788 C153.073653,18.6591227 153.215721,18.0224947 153.215721,16.4895087 L153.215721,4.68894738 C153.215721,3.50301056 153.017262,2.83787019 152.477841,2.14377194 C151.881592,1.4207158 151.030494,0.987238517 150.094156,0.987238517 C149.07214,0.987238517 148.078974,1.53654734 147.539553,2.37543503 C147.085809,3.0405754 146.972154,3.61884211 146.972154,4.89120708 L146.972154,8.4779754 Z" id="Fill-56"/>
                        <path d="M163.254735,13.3080617 L164.219487,10.9945494 L165.184676,13.3080617 L163.254735,13.3080617 Z M161.353208,17.906574 L167.142593,17.906574 C168.022541,19.8734828 168.873639,20.5680265 170.321422,20.5680265 C172.052031,20.5680265 173.4714,19.1504266 173.4714,17.415181 C173.4714,16.9233424 173.357746,16.3740336 173.10246,15.882195 L167.142593,2.92465475 C166.575195,1.71020556 165.496789,0.987149416 164.219487,0.987149416 C162.971036,0.987149416 161.89263,1.71020556 161.353208,2.89569687 L155.422192,15.7088932 C155.166469,16.2582021 155.024401,16.8369143 155.024401,17.3862231 C155.024401,19.1793845 156.386943,20.5680265 158.117989,20.5680265 C159.622163,20.5680265 160.558938,19.7870546 161.353208,17.906574 L161.353208,17.906574 Z" id="Fill-60"/>
                    </g>
                    <path d="M220.994192,14.5 C222.417498,14.5 223.961896,14.9297605 225.057671,15.9512846 C225.947967,16.7812544 226.559037,18.0000587 226.559037,19.721648 C226.559037,21.0212432 225.811943,22.5947752 224.193037,24.4962229 C225.444053,25.5547464 226.89399,26.7548855 228.509337,28.0688113 L228.509337,28.0688113 L225.98594,31.7127968 C224.016377,30.233329 222.441576,28.9601567 221.115001,27.7861489 C220.297823,28.3972029 219.512388,29.0111976 218.715149,29.6343604 C217.918576,30.2570016 217.110312,30.8887524 216.247581,31.5358492 L216.247581,31.5358492 L213.276381,28.2438244 C215.079282,26.7770161 216.55025,25.5598057 217.806543,24.4958955 C216.188038,22.5941572 215.440963,21.0212151 215.440963,19.721648 C215.440963,18.0012843 216.051185,16.7829984 216.939355,15.9531078 C218.034173,14.9301296 219.57682,14.5 220.994192,14.5 Z M220.997451,18.5085744 C220.079703,18.5115814 219.342064,18.5873241 218.807747,18.6951389 C218.617607,18.7335055 218.458152,18.7778797 218.25065,18.8926692 C218.480436,19.2214376 219.175199,19.9534264 221.000364,21.58757 C222.653757,20.1253817 223.691404,19.2428016 223.677931,18.819534 C223.545449,18.7754512 223.382701,18.7337188 223.191386,18.6951293 C222.656898,18.5873191 221.918971,18.5115814 220.997451,18.5085744 Z" id="crespon" stroke="#FFFFFF" fill="#000000"/>
                </g>
            </g>
        </g>
    </g>
</svg>